<?xml version="1.0" standalone="no"?><!DOCTYPE svg PUBLIC "-//W3C//DTD SVG 1.1//EN" "http://www.w3.org/Graphics/SVG/1.1/DTD/svg11.dtd"><svg t="1623947249235" class="icon" viewBox="0 0 1024 1024" version="1.1" xmlns="http://www.w3.org/2000/svg" p-id="11974" xmlns:xlink="http://www.w3.org/1999/xlink" width="200" height="200"><defs><style type="text/css"></style></defs><path d="M760.2 782.9l-6.6-49.5h1.4c8 0 14.5-6.5 14.5-14.5v-1.2c0-8-6.5-14.5-14.5-14.5h-5.4l-8.5-63.3c7.6-0.4 13.8-6.7 13.8-14.5v-1.2c0-8-6.5-14.5-14.5-14.5H737l-8.5-63.2h2.1c8 0 14.5-6.5 14.5-14.5v-1c0-8-6.5-14.5-14.5-14.5h-6.1l-8.5-63.2h4.9c8 0 14.5-6.5 14.5-14.5v-1.2c0-8-6.5-14.5-14.5-14.5h-9l-8.5-63.2h2.9c8 0 14.5-6.5 14.5-14.5v-1.2c0-8-6.5-14.5-14.5-14.5h-6.9l-3.2-23.9c-2.5-17.7-21.8-32.6-43.4-39-20.9-10.7-48.7-18.9-80.6-23.5v31.3c0 16.6-13.6 30.1-30.1 30.1h-60.3c-16.6 0-30.1-13.6-30.1-30.1v-31c-29.9 4.5-56.2 12.2-76.4 22.1-23.6 5.7-45 21.3-47.6 40.1l-3.2 23.9h-6.9c-8 0-14.5 6.5-14.5 14.5v1.2c0 8 6.5 14.5 14.5 14.5h2.9l-8.5 63.2h-9c-8 0-14.5 6.5-14.5 14.5v1.2c0 8 6.5 14.5 14.5 14.5h4.9l-8.5 63.2h-6.1c-8 0-14.5 6.5-14.5 14.5v1.2c0 8 6.5 14.5 14.5 14.5h2.1l-8.5 63.2h-3.3c-8 0-14.5 6.5-14.5 14.5v1.2c0 7.7 6.1 14.1 13.8 14.5l-8.5 63.3H269c-8 0-14.5 6.5-14.5 14.5v1.2c0 8 6.5 14.5 14.5 14.5h1.4l-6.6 49.5c-11 4.1-18.9 14.7-18.9 27.1v2.3c0 15.9 13 28.9 28.9 28.9h2.6c8 11.2 19 20 32.2 25.2C351.2 887.8 426.8 902 513 902c116.9 0 214.4-26.1 236.4-60.7h0.9c15.9 0 28.9-13 28.9-28.9V810c0-12.4-7.9-23-19-27.1z" fill="#BE9567" p-id="11975"></path><path d="M481.9 234.5v25.7c0 8.8 7.2 16 16 16h28.3c8.8 0 16-7.2 16-16v-25.7c18-10.4 30.1-29.9 30.1-52.2 0-33.3-27-60.3-60.3-60.3s-60.3 27-60.3 60.3c0 22.3 12.2 41.7 30.2 52.2zM512 149c16.6 0 30.1 13.5 30.1 30.1s-13.5 30.1-30.1 30.1-30.1-13.5-30.1-30.1S495.4 149 512 149z" fill="#BE9567" p-id="11976"></path></svg>